# xmcd
#
# Track frame offsets:
#	150
#	15026
#	33023
#	49966
#	67296
#	85945
#	101951
#	119748
#	133107
#	149811
#	171307
#	186038
#	207436
#	222486
#	239542
#	255736
#	272438
#	293403
#	312213
#
# Disc length: 4351 seconds
#
# Revision: 0
# Processed by: cddbd v1.5.2PL0 Copyright (c) Steve Scherf et al.
# Submitted via: EasyCDDAExtractor 5.0.5.1
#
DISCID=2910fd13
DTITLE=方大同 - Timeless 可啦思刻
DYEAR=2009
DGENRE=Blues
TTITLE0=Singalongsong
TTITLE1=小小蟲
TTITLE2=1234567
TTITLE3=黑白
TTITLE4=如果愛
TTITLE5=黑洞
TTITLE6=三人游
TTITLE7=每個人都會
TTITLE8=100種表情
TTITLE9=愛我吧
TTITLE10=為你寫的歌
TTITLE11=復刻回憶
TTITLE12=春風吹
TTITLE13=妹妹
TTITLE14=南音
TTITLE15=歌手與模特兒
TTITLE16=拖男帶女
TTITLE17=每天每天
TTITLE18=Goodbye Melody Rose
EXTD=
EXTT0=
EXTT1=
EXTT2=
EXTT3=
EXTT4=
EXTT5=
EXTT6=
EXTT7=
EXTT8=
EXTT9=
EXTT10=
EXTT11=
EXTT12=
EXTT13=
EXTT14=
EXTT15=
EXTT16=
EXTT17=
EXTT18=
PLAYORDER=
